<svg width="58" height="13" viewBox="0 0 58 13" fill="none" xmlns="http://www.w3.org/2000/svg">
<path d="M3.8051 12.0955C2.63004 12.0955 1.74081 11.8785 1.13739 11.4445C0.533984 10.9999 0.179348 10.4176 0.0734863 9.69775L2.09015 9.18962C2.15367 9.49662 2.32834 9.74539 2.61416 9.93594C2.89999 10.1159 3.29168 10.2059 3.78923 10.2059C4.58319 10.2059 4.98017 10.0206 4.98017 9.65012C4.98017 9.45956 4.86372 9.31665 4.63082 9.22137C4.40852 9.11551 4.04329 9.01495 3.53516 8.91967C2.5824 8.75029 1.84137 8.48035 1.31207 8.10983C0.793345 7.73932 0.533984 7.17296 0.533984 6.41075C0.533984 5.89203 0.68219 5.43153 0.978602 5.02926C1.27501 4.62699 1.68258 4.3094 2.2013 4.07651C2.72002 3.84361 3.31814 3.72716 3.99566 3.72716C4.87431 3.72716 5.59946 3.93359 6.17111 4.34645C6.75335 4.75931 7.0974 5.26745 7.20326 5.87086L5.21836 6.41075C5.14425 6.17786 4.99605 5.98731 4.77374 5.8391C4.56201 5.6909 4.2709 5.61679 3.90038 5.61679C3.55104 5.61679 3.29168 5.67502 3.1223 5.79146C2.96351 5.90791 2.88411 6.04553 2.88411 6.20432C2.88411 6.39487 2.99526 6.54837 3.21757 6.66482C3.43988 6.77068 3.83157 6.88184 4.39264 6.99828C4.96429 7.10415 5.46713 7.25235 5.90116 7.4429C6.34578 7.62287 6.68983 7.87693 6.93331 8.20511C7.18738 8.52269 7.31441 8.95672 7.31441 9.5072C7.31441 10.0259 7.16091 10.4811 6.85392 10.8728C6.5575 11.2645 6.14464 11.5662 5.61534 11.7779C5.08603 11.9897 4.48262 12.0955 3.8051 12.0955Z" fill="#6D54FE"/>
<path d="M11.387 12.0955C10.4554 12.0955 9.75142 11.7779 9.27505 11.1428C8.79867 10.5076 8.56578 9.62365 8.57636 8.49093L8.60812 3.8542H11.0376L11.0059 8.30038C11.0059 8.77676 11.0906 9.15257 11.26 9.42781C11.4293 9.70305 11.694 9.84067 12.0539 9.84067C12.3609 9.84067 12.6414 9.74539 12.8955 9.55484C13.1496 9.36429 13.3719 9.0467 13.5624 8.60209C13.753 8.15747 13.9012 7.54877 14.0071 6.77598C14.1235 6.00319 14.187 5.02926 14.1976 3.8542H16.5477V11.9367H14.1182L14.2294 10.3806C13.9118 10.931 13.5095 11.3545 13.0225 11.6509C12.5356 11.9473 11.9904 12.0955 11.387 12.0955Z" fill="#6D54FE"/>
<path d="M32.751 3.8542L32.9733 11.9367H30.6862V3.8542H32.751Z" fill="#6D54FE"/>
<path d="M38.312 12.0955C37.4757 12.0955 36.7505 11.9367 36.1365 11.6191C35.5225 11.291 35.0461 10.8252 34.7073 10.2218C34.3686 9.61836 34.1992 8.8985 34.1992 8.06219C34.1992 7.20471 34.3792 6.4531 34.7391 5.80734C35.1096 5.151 35.6178 4.64287 36.2635 4.28294C36.9093 3.91242 37.6609 3.72716 38.5184 3.72716C39.2171 3.72716 39.8364 3.86478 40.3763 4.14002C40.9162 4.41526 41.3502 4.844 41.6784 5.42624L39.9634 6.72834C39.794 6.42134 39.5929 6.19903 39.36 6.06141C39.1377 5.92379 38.8572 5.85498 38.5184 5.85498C37.9997 5.85498 37.5709 6.05612 37.2322 6.45839C36.8934 6.85008 36.7241 7.3688 36.7241 8.01455C36.7241 8.63914 36.8723 9.12081 37.1687 9.45956C37.4757 9.79832 37.915 9.9677 38.4866 9.9677C38.7936 9.9677 39.0742 9.89889 39.3282 9.76127C39.5929 9.61306 39.8152 9.38546 39.9952 9.07846L41.6625 10.4123C41.3026 11.0263 40.8262 11.4603 40.2334 11.7144C39.6511 11.9685 39.0107 12.0955 38.312 12.0955Z" fill="#6D54FE"/>
<path d="M50.8145 3.88596V11.9367H48.3691L48.4486 10.7299C47.8663 11.6403 47.0035 12.0955 45.8602 12.0955C45.1404 12.0955 44.5264 11.9314 44.0182 11.6033C43.5101 11.2751 43.1237 10.8199 42.8591 10.2376C42.5944 9.65541 42.4621 8.98848 42.4621 8.23686C42.4621 7.33704 42.6473 6.54837 43.0179 5.87086C43.3884 5.19335 43.8859 4.66933 44.5105 4.29882C45.1351 3.91771 45.8338 3.72716 46.6065 3.72716C47.1147 3.72716 47.5646 3.83303 47.9563 4.04475C48.348 4.24589 48.6497 4.51583 48.8614 4.85459L49.0678 3.88596H50.8145ZM46.8447 5.8391C46.2625 5.8391 45.802 6.05612 45.4632 6.49015C45.1351 6.92418 44.971 7.47995 44.971 8.15747C44.971 8.73971 45.098 9.18962 45.3521 9.5072C45.6167 9.82479 45.9714 9.98358 46.416 9.98358C46.9559 9.98358 47.4164 9.76127 47.7975 9.31665C48.1892 8.87203 48.385 8.2898 48.385 7.56994C48.385 7.03004 48.2474 6.6066 47.9722 6.2996C47.6969 5.9926 47.3211 5.8391 46.8447 5.8391Z" fill="#6D54FE"/>
<path d="M55.5389 12.0955C54.5438 12.0955 53.7551 11.8203 53.1728 11.2698C52.5906 10.7087 52.3048 9.97299 52.3154 9.06258L52.3789 5.87086L52.4106 3.8542L52.4265 2.20276H54.8402L54.8243 3.8542H57.3491V5.87086H54.7925L54.7449 8.79264C54.7449 9.17374 54.8455 9.47015 55.0466 9.68187C55.2477 9.8936 55.5494 9.99946 55.9517 9.99946C56.1846 9.99946 56.4069 9.97299 56.6186 9.92006C56.8409 9.85654 57.0686 9.7401 57.3014 9.57072L58.0001 11.4286C57.4602 11.8732 56.6398 12.0955 55.5389 12.0955Z" fill="#6D54FE"/>
<path d="M30.7009 2.42058C30.9575 2.70166 31.3029 2.8422 31.737 2.8422C32.1712 2.8422 32.5166 2.70166 32.7732 2.42058C33.0298 2.13951 33.1581 1.80638 33.1581 1.42119C33.1581 1.03601 33.0298 0.70288 32.7732 0.421801C32.5166 0.140722 32.1712 0.000183105 31.737 0.000183105C31.293 0.000183105 30.9427 0.140722 30.6861 0.421801C30.4394 0.70288 30.316 1.03601 30.316 1.42119C30.316 1.80638 30.4443 2.13951 30.7009 2.42058Z" fill="#6D54FE"/>
<path d="M23.4751 6.20435C23.2633 6.11967 22.8502 6.03403 22.4963 5.96844C21.3462 5.75529 20.3092 6.4658 20.2227 7.38945C20.1363 8.31311 20.3627 10.5288 20.3627 11.9368H17.9491V7.38945C17.9491 5.96844 18.6729 4.90268 19.5255 4.40533C20.329 3.93666 21.5851 3.63556 22.9352 3.7272C23.5044 3.76583 23.9038 3.8701 23.9038 3.8701L23.4751 6.20435Z" fill="#6D54FE"/>
<path d="M24.9646 11.9366V5.87074L24.9646 3.85408L24.9646 3.60002C24.9646 2.86957 25.1234 2.2397 25.441 1.71039C25.7585 1.1705 26.1873 0.757636 26.7272 0.47181C27.2777 0.175398 27.8969 0.0271912 28.585 0.0271912C28.585 0.0271912 29.5276 0.0982076 29.725 0.213282L29.1408 2.25028C28.982 2.13383 28.7809 2.07561 28.5374 2.07561C28.1669 2.07561 27.8758 2.19206 27.6641 2.42495C27.4629 2.64726 27.2382 2.97014 27.2382 3.39359V3.85408H29.1408V5.87074H27.2382L27.3941 11.9366H24.9646Z" fill="#6D54FE"/>
</svg>
